<?xml version="1.0" encoding="utf-8"?>
<!-- Generator: Adobe Illustrator 25.4.0, SVG Export Plug-In . SVG Version: 6.00 Build 0)  -->
<svg version="1.1" id="Layer_1" xmlns="http://www.w3.org/2000/svg" xmlns:xlink="http://www.w3.org/1999/xlink" x="0px" y="0px"
	 viewBox="0 0 274.2 70.5" style="enable-background:new 0 0 274.2 70.5;" xml:space="preserve">
<style type="text/css">
	.st0{fill:#FFFFFF;}
</style>
<g id="Layer_3">
	<path class="st0" d="M75.1,2.9C73.9,1.1,71.8,0,69.7,0H19.5c-2.2,0-4.2,1.1-5.4,2.9l-13,19.4c-1.7,2.6-1.4,6,0.8,8.2L40,68.6
		c2.5,2.5,6.7,2.5,9.2,0l38.1-38.1c2.2-2.2,2.5-5.6,0.8-8.2L75.1,2.9z M44.6,54.9L14.9,25.1l6.5-9.7c1.2-1.4,2.8-2.2,4.6-2.4h37.1
		c1.8,0.1,3.5,1,4.6,2.4l6.5,9.7L44.6,54.9z"/>
	<path class="st0" d="M274.2,25.9c0,3.6-2.9,6.5-6.5,6.5c-2.2,0-4.2-1.1-5.4-2.9l-9.5-14.1c-1.2-1.4-2.9-2.3-4.7-2.4h-11.4
		l-18.5,30.5l16,16c2.5,2.5,2.5,6.7,0,9.2c-2.5,2.5-6.7,2.5-9.2,0L205.5,49l-0.1-0.1l-0.3-0.3l-0.2-0.2c-0.1-0.1-0.1-0.2-0.2-0.3
		c-0.1-0.1-0.1-0.2-0.2-0.3c-0.1-0.1-0.1-0.2-0.2-0.3c-0.1-0.1-0.1-0.2-0.2-0.3c0-0.1-0.1-0.2-0.1-0.2c-0.1-0.1-0.1-0.2-0.1-0.3
		l-0.1-0.2c0-0.1-0.1-0.2-0.1-0.3l-0.1-0.3c0-0.1-0.1-0.2-0.1-0.3c0-0.1,0-0.2,0-0.3v-0.3c0-0.1,0-0.2,0-0.3v-0.3c0-0.1,0-0.2,0-0.3
		c0-0.1,0-0.2,0-0.3c0-0.1,0-0.2,0-0.3l0.1-0.3c0-0.1,0-0.2,0.1-0.3l0.1-0.3c0-0.1,0.1-0.2,0.1-0.3c0-0.1,0.1-0.2,0.2-0.3
		c0-0.1,0.1-0.1,0.1-0.2c0.1-0.1,0.1-0.2,0.2-0.4c0,0,0-0.1,0.1-0.1l17-28.1H211c-1.8,0.1-3.4,1-4.6,2.3l-9.5,14.2
		c-0.1,0.2-0.3,0.4-0.5,0.6l-0.2,0.2c-0.1,0.1-0.2,0.3-0.4,0.4l-0.2,0.2l-0.4,0.3l-0.2,0.1c-0.2,0.1-0.4,0.3-0.6,0.4h0
		c-0.2,0.1-0.4,0.2-0.6,0.3l-0.2,0.1l-0.5,0.1c-0.1,0-0.2,0-0.2,0.1c-0.2,0-0.3,0.1-0.5,0.1h-0.2c-0.2,0-0.5,0-0.7,0h0
		c-0.3,0-0.5,0-0.8-0.1h-0.2c-0.3,0-0.6-0.1-0.8-0.2l0,0c-0.3-0.1-0.5-0.2-0.8-0.3l-0.2-0.1c-0.3-0.1-0.5-0.3-0.8-0.4
		c-3-2-3.8-6-1.8-9l13-19.4c1.2-1.8,3.2-2.8,5.4-2.8h50.2c2.2,0,4.2,1.1,5.4,2.9l13,19.4C273.8,23.4,274.2,24.6,274.2,25.9z"/>
	<g>
		<path class="st0" d="M178.9,31.3c-3,2-7,1.2-9-1.8l-9.5-14.1c-1.2-1.4-2.9-2.3-4.7-2.4h-37.1c-1.8,0.1-3.4,0.9-4.6,2.3l-6.5,9.8
			l34.3,34.3c2.5,2.5,2.5,6.7,0,9.2c-2.5,2.5-6.7,2.5-9.2,0L94.5,30.5c-2.2-2.2-2.5-5.6-0.8-8.2l13-19.4c1.2-1.8,3.2-2.9,5.4-2.9
			h50.2c2.2,0,4.2,1.1,5.4,2.9l13,19.4C182.7,25.3,181.9,29.3,178.9,31.3C178.9,31.3,178.9,31.3,178.9,31.3z"/>
		<path class="st0" d="M152.8,25.5h-23.9c-3.6,0-6.5,2.9-6.5,6.5c0,3.6,2.9,6.5,6.5,6.5h23.9c3.6,0,6.5-2.9,6.5-6.5
			S156.4,25.5,152.8,25.5z"/>
	</g>
</g>
</svg>
